<?xml version="1.0" standalone="no"?>
<!DOCTYPE svg PUBLIC "-//W3C//DTD SVG 20010904//EN"
 "http://www.w3.org/TR/2001/REC-SVG-20010904/DTD/svg10.dtd">
<svg version="1.0" xmlns="http://www.w3.org/2000/svg"
 width="120.000000pt" height="120.000000pt" viewBox="0 0 120.000000 120.000000"
 preserveAspectRatio="xMidYMid meet">

<g transform="translate(0.000000,120.000000) scale(0.100000,-0.100000)"
fill="#000000" stroke="none">
<path d="M545 1098 c-73 -10 -111 -23 -166 -59 -92 -59 -152 -153 -169 -266
-31 -196 109 -481 277 -567 18 -9 38 -16 46 -16 22 0 28 -27 12 -44 -22 -22
-19 -24 36 -24 47 0 49 1 35 17 -25 27 -19 37 27 50 129 38 242 166 301 341
49 147 43 265 -21 382 -70 129 -229 207 -378 186z"/>
</g>
</svg>
